<svg width="20" height="20" viewBox="0 0 20 20" fill="none" xmlns="http://www.w3.org/2000/svg">
<mask id="mask0_1_1459" style="mask-type:alpha" maskUnits="userSpaceOnUse" x="0" y="0" width="20" height="20">
<rect width="20" height="20" fill="#C4C4C4"/>
</mask>
<g mask="url(#mask0_1_1459)">
<path d="M10.0002 13.9583C10.1773 13.9583 10.3257 13.8984 10.4454 13.7786C10.5651 13.6588 10.6249 13.5104 10.6249 13.3333V9.79162C10.6249 9.61455 10.565 9.46612 10.4451 9.34633C10.3253 9.22654 10.1768 9.16664 9.99963 9.16664C9.82246 9.16664 9.67405 9.22654 9.5544 9.34633C9.43475 9.46612 9.37492 9.61455 9.37492 9.79162V13.3333C9.37492 13.5104 9.43484 13.6588 9.55467 13.7786C9.67452 13.8984 9.82302 13.9583 10.0002 13.9583ZM9.9999 7.74037C10.1906 7.74037 10.3505 7.67587 10.4795 7.54687C10.6085 7.41787 10.673 7.25802 10.673 7.06731C10.673 6.87661 10.6085 6.71676 10.4795 6.58775C10.3505 6.45875 10.1906 6.39425 9.9999 6.39425C9.80919 6.39425 9.64934 6.45875 9.52034 6.58775C9.39134 6.71676 9.32684 6.87661 9.32684 7.06731C9.32684 7.25802 9.39134 7.41787 9.52034 7.54687C9.64934 7.67587 9.80919 7.74037 9.9999 7.74037ZM10.0013 17.9166C8.90635 17.9166 7.87715 17.7088 6.91371 17.2933C5.95025 16.8777 5.11218 16.3138 4.3995 15.6014C3.68681 14.889 3.12259 14.0513 2.70686 13.0883C2.29112 12.1253 2.08325 11.0963 2.08325 10.0014C2.08325 8.90643 2.29103 7.87723 2.70659 6.91379C3.12214 5.95033 3.6861 5.11226 4.39846 4.39958C5.11084 3.68689 5.94854 3.12267 6.91156 2.70693C7.87458 2.2912 8.90356 2.08333 9.9985 2.08333C11.0934 2.08333 12.1226 2.29111 13.0861 2.70666C14.0495 3.12222 14.8876 3.68618 15.6003 4.39854C16.313 5.11091 16.8772 5.94861 17.2929 6.91164C17.7087 7.87466 17.9165 8.90363 17.9165 9.99858C17.9165 11.0935 17.7088 12.1227 17.2932 13.0862C16.8777 14.0496 16.3137 14.8877 15.6013 15.6004C14.889 16.3131 14.0513 16.8773 13.0882 17.293C12.1252 17.7088 11.0962 17.9166 10.0013 17.9166ZM9.9999 16.6666C11.861 16.6666 13.4374 16.0208 14.7291 14.7291C16.0207 13.4375 16.6666 11.8611 16.6666 9.99997C16.6666 8.13886 16.0207 6.56247 14.7291 5.27081C13.4374 3.97914 11.861 3.33331 9.9999 3.33331C8.13879 3.33331 6.5624 3.97914 5.27073 5.27081C3.97906 6.56247 3.33323 8.13886 3.33323 9.99997C3.33323 11.8611 3.97906 13.4375 5.27073 14.7291C6.5624 16.0208 8.13879 16.6666 9.9999 16.6666Z" fill="#888F95"/>
</g>
</svg>
